<svg xmlns="http://www.w3.org/2000/svg" xmlns:xlink="http://www.w3.org/1999/xlink" width="500" zoomAndPan="magnify" viewBox="0 0 375 374.999991" height="500" preserveAspectRatio="xMidYMid meet" version="1.2"><defs><clipPath id="dc0ad55db9"><path d="M 48.28125 0 L 326.53125 0 L 326.53125 375 L 48.28125 375 Z M 48.28125 0 "/></clipPath><clipPath id="c5df707a28"><path d="M 227 0 L 326.53125 0 L 326.53125 100 L 227 100 Z M 227 0 "/></clipPath></defs><g id="bc761e74e8"><g clip-rule="nonzero" clip-path="url(#dc0ad55db9)"><path style=" stroke:none;fill-rule:nonzero;fill:#006fe8;fill-opacity:1;" d="M 326.53125 99.550781 L 326.53125 355.578125 C 326.53125 356.210938 326.5 356.839844 326.4375 357.464844 C 326.375 358.09375 326.28125 358.71875 326.160156 359.335938 C 326.039062 359.953125 325.882812 360.566406 325.703125 361.167969 C 325.519531 361.769531 325.308594 362.363281 325.066406 362.945312 C 324.824219 363.527344 324.554688 364.097656 324.257812 364.652344 C 323.960938 365.210938 323.636719 365.75 323.289062 366.273438 C 322.9375 366.800781 322.5625 367.304688 322.164062 367.792969 C 321.765625 368.28125 321.339844 368.746094 320.894531 369.191406 C 320.449219 369.636719 319.984375 370.058594 319.496094 370.460938 C 319.011719 370.859375 318.503906 371.234375 317.980469 371.585938 C 317.457031 371.9375 316.917969 372.261719 316.363281 372.558594 C 315.804688 372.855469 315.238281 373.125 314.65625 373.363281 C 314.074219 373.605469 313.480469 373.820312 312.878906 374 C 312.273438 374.183594 311.664062 374.335938 311.046875 374.460938 C 310.429688 374.582031 309.804688 374.675781 309.179688 374.738281 C 308.550781 374.800781 307.921875 374.832031 307.292969 374.832031 L 67.519531 374.832031 C 66.890625 374.832031 66.261719 374.800781 65.632812 374.738281 C 65.007812 374.675781 64.382812 374.582031 63.765625 374.460938 C 63.148438 374.335938 62.539062 374.183594 61.933594 374 C 61.332031 373.820312 60.738281 373.605469 60.15625 373.363281 C 59.574219 373.125 59.007812 372.855469 58.449219 372.558594 C 57.894531 372.261719 57.355469 371.9375 56.832031 371.585938 C 56.308594 371.234375 55.800781 370.859375 55.316406 370.460938 C 54.828125 370.058594 54.363281 369.636719 53.917969 369.191406 C 53.472656 368.746094 53.046875 368.28125 52.648438 367.792969 C 52.25 367.304688 51.875 366.800781 51.523438 366.273438 C 51.175781 365.75 50.851562 365.210938 50.554688 364.652344 C 50.257812 364.097656 49.988281 363.527344 49.746094 362.945312 C 49.503906 362.363281 49.292969 361.769531 49.109375 361.167969 C 48.929688 360.566406 48.773438 359.953125 48.652344 359.335938 C 48.53125 358.71875 48.4375 358.09375 48.375 357.464844 C 48.3125 356.839844 48.28125 356.210938 48.28125 355.578125 L 48.28125 19.421875 C 48.28125 18.789062 48.3125 18.160156 48.375 17.535156 C 48.4375 16.90625 48.53125 16.28125 48.652344 15.664062 C 48.773438 15.046875 48.929688 14.433594 49.109375 13.832031 C 49.292969 13.230469 49.503906 12.636719 49.746094 12.054688 C 49.988281 11.472656 50.257812 10.902344 50.554688 10.347656 C 50.851562 9.789062 51.175781 9.25 51.523438 8.726562 C 51.875 8.203125 52.25 7.695312 52.648438 7.207031 C 53.046875 6.71875 53.472656 6.253906 53.917969 5.808594 C 54.363281 5.363281 54.828125 4.941406 55.316406 4.539062 C 55.800781 4.140625 56.308594 3.765625 56.832031 3.414062 C 57.355469 3.0625 57.894531 2.738281 58.449219 2.441406 C 59.007812 2.144531 59.574219 1.875 60.15625 1.636719 C 60.738281 1.394531 61.332031 1.179688 61.933594 1 C 62.539062 0.816406 63.148438 0.664062 63.765625 0.539062 C 64.382812 0.417969 65.007812 0.324219 65.632812 0.261719 C 66.261719 0.199219 66.890625 0.167969 67.519531 0.167969 L 227.21875 0.167969 Z M 326.53125 99.550781 "/></g><g clip-rule="nonzero" clip-path="url(#c5df707a28)"><path style=" stroke:none;fill-rule:nonzero;fill:#5aa9ff;fill-opacity:1;" d="M 326.53125 99.550781 L 235.285156 99.550781 C 234.757812 99.550781 234.230469 99.496094 233.710938 99.394531 C 233.191406 99.289062 232.6875 99.136719 232.199219 98.933594 C 231.710938 98.730469 231.246094 98.484375 230.804688 98.1875 C 230.363281 97.894531 229.957031 97.558594 229.582031 97.183594 C 229.207031 96.808594 228.871094 96.402344 228.578125 95.960938 C 228.285156 95.519531 228.035156 95.054688 227.832031 94.566406 C 227.628906 94.074219 227.476562 93.570312 227.375 93.050781 C 227.269531 92.53125 227.21875 92.003906 227.21875 91.476562 L 227.21875 0.167969 Z M 326.53125 99.550781 "/></g><path style=" stroke:none;fill-rule:nonzero;fill:#ffffff;fill-opacity:1;" d="M 119.625 204.289062 L 97.9375 204.289062 L 97.9375 262.214844 L 119.625 262.214844 C 138.09375 262.214844 149.96875 250.417969 149.96875 233.253906 C 149.96875 216.007812 138.09375 204.289062 119.625 204.289062 Z M 118.71875 250.003906 L 112.039062 250.003906 L 112.039062 216.335938 L 118.71875 216.335938 C 129.355469 216.335938 135.621094 222.609375 135.621094 233.253906 C 135.621094 243.898438 129.355469 250.003906 118.71875 250.003906 Z M 118.71875 250.003906 "/><path style=" stroke:none;fill-rule:nonzero;fill:#ffffff;fill-opacity:1;" d="M 185.261719 203.464844 C 168.855469 203.464844 155.492188 215.671875 155.492188 233.085938 C 155.492188 250.503906 168.851562 262.792969 185.261719 262.792969 C 201.671875 262.792969 214.867188 250.5 214.867188 233.085938 C 214.867188 215.675781 201.753906 203.464844 185.261719 203.464844 Z M 185.261719 249.921875 C 175.867188 249.921875 169.925781 243.238281 169.925781 233.082031 C 169.925781 222.769531 175.863281 216.246094 185.261719 216.246094 C 194.496094 216.246094 200.515625 222.765625 200.515625 233.082031 C 200.515625 243.238281 194.496094 249.921875 185.261719 249.921875 Z M 185.261719 249.921875 "/><path style=" stroke:none;fill-rule:nonzero;fill:#ffffff;fill-opacity:1;" d="M 249.25 249.839844 C 240.59375 249.839844 234.65625 243.402344 234.65625 233.171875 C 234.65625 222.9375 240.59375 216.503906 249.25 216.503906 C 254.609375 216.503906 258.980469 218.976562 261.371094 223.929688 L 276.875 223.929688 C 273.578125 211.386719 263.1875 203.628906 249.414062 203.628906 C 232.347656 203.628906 220.308594 215.835938 220.308594 233.171875 C 220.308594 250.503906 232.347656 262.636719 249.414062 262.636719 C 263.1875 262.636719 273.578125 254.960938 276.875 242.421875 L 261.371094 242.421875 C 258.980469 247.363281 254.609375 249.839844 249.25 249.839844 Z M 249.25 249.839844 "/><g style="fill:#006fe8;fill-opacity:1;"><g transform="translate(172.968744, 193.124987)"><path style="stroke:none" d="M 4.46875 0.171875 C 3.78125 0.171875 3.171875 0.00390625 2.640625 -0.328125 C 2.109375 -0.660156 1.691406 -1.160156 1.390625 -1.828125 C 1.097656 -2.492188 0.953125 -3.320312 0.953125 -4.3125 C 0.953125 -5.289062 1.109375 -6.113281 1.421875 -6.78125 C 1.734375 -7.457031 2.160156 -7.957031 2.703125 -8.28125 C 3.253906 -8.613281 3.894531 -8.78125 4.625 -8.78125 C 5.195312 -8.78125 5.710938 -8.671875 6.171875 -8.453125 C 6.628906 -8.242188 7.019531 -7.890625 7.34375 -7.390625 L 7.515625 -7.421875 L 7.515625 -12.078125 L 8.78125 -12.078125 L 8.78125 0 L 7.515625 0 L 7.515625 -1.265625 L 7.34375 -1.296875 C 7.0625 -0.867188 6.679688 -0.515625 6.203125 -0.234375 C 5.722656 0.0351562 5.144531 0.171875 4.46875 0.171875 Z M 4.875 -0.984375 C 5.675781 -0.984375 6.316406 -1.253906 6.796875 -1.796875 C 7.273438 -2.347656 7.515625 -3.1875 7.515625 -4.3125 C 7.515625 -5.4375 7.273438 -6.269531 6.796875 -6.8125 C 6.316406 -7.363281 5.675781 -7.640625 4.875 -7.640625 C 4.039062 -7.640625 3.398438 -7.367188 2.953125 -6.828125 C 2.503906 -6.296875 2.28125 -5.457031 2.28125 -4.3125 C 2.28125 -2.09375 3.144531 -0.984375 4.875 -0.984375 Z M 4.875 -0.984375 "/></g></g><g style="fill:#006fe8;fill-opacity:1;"><g transform="translate(183.2553, 193.124987)"><path style="stroke:none" d="M 4.953125 0.171875 C 4.140625 0.171875 3.429688 0 2.828125 -0.34375 C 2.222656 -0.695312 1.757812 -1.207031 1.4375 -1.875 C 1.113281 -2.539062 0.953125 -3.351562 0.953125 -4.3125 C 0.953125 -5.257812 1.113281 -6.066406 1.4375 -6.734375 C 1.757812 -7.410156 2.222656 -7.921875 2.828125 -8.265625 C 3.429688 -8.609375 4.140625 -8.78125 4.953125 -8.78125 C 5.765625 -8.78125 6.46875 -8.609375 7.0625 -8.265625 C 7.664062 -7.921875 8.128906 -7.410156 8.453125 -6.734375 C 8.785156 -6.066406 8.953125 -5.257812 8.953125 -4.3125 C 8.953125 -3.351562 8.785156 -2.539062 8.453125 -1.875 C 8.128906 -1.207031 7.664062 -0.695312 7.0625 -0.34375 C 6.46875 0 5.765625 0.171875 4.953125 0.171875 Z M 4.953125 -0.984375 C 5.804688 -0.984375 6.460938 -1.253906 6.921875 -1.796875 C 7.378906 -2.335938 7.609375 -3.175781 7.609375 -4.3125 C 7.609375 -5.445312 7.378906 -6.285156 6.921875 -6.828125 C 6.460938 -7.367188 5.804688 -7.640625 4.953125 -7.640625 C 4.085938 -7.640625 3.425781 -7.367188 2.96875 -6.828125 C 2.507812 -6.285156 2.28125 -5.445312 2.28125 -4.3125 C 2.28125 -3.175781 2.507812 -2.335938 2.96875 -1.796875 C 3.425781 -1.253906 4.085938 -0.984375 4.953125 -0.984375 Z M 4.953125 -0.984375 "/></g></g><g style="fill:#006fe8;fill-opacity:1;"><g transform="translate(193.14351, 193.124987)"><path style="stroke:none" d="M 4.953125 0.171875 C 4.191406 0.171875 3.507812 0 2.90625 -0.34375 C 2.300781 -0.695312 1.820312 -1.210938 1.46875 -1.890625 C 1.125 -2.566406 0.953125 -3.375 0.953125 -4.3125 C 0.953125 -5.25 1.125 -6.054688 1.46875 -6.734375 C 1.820312 -7.410156 2.300781 -7.921875 2.90625 -8.265625 C 3.507812 -8.609375 4.191406 -8.78125 4.953125 -8.78125 C 5.859375 -8.78125 6.582031 -8.609375 7.125 -8.265625 C 7.664062 -7.921875 8.054688 -7.460938 8.296875 -6.890625 L 7.421875 -6.265625 L 7.265625 -6.265625 C 7.035156 -6.742188 6.734375 -7.09375 6.359375 -7.3125 C 5.992188 -7.53125 5.523438 -7.640625 4.953125 -7.640625 C 4.421875 -7.640625 3.953125 -7.515625 3.546875 -7.265625 C 3.148438 -7.015625 2.835938 -6.640625 2.609375 -6.140625 C 2.390625 -5.640625 2.28125 -5.03125 2.28125 -4.3125 C 2.28125 -3.59375 2.390625 -2.984375 2.609375 -2.484375 C 2.835938 -1.984375 3.148438 -1.609375 3.546875 -1.359375 C 3.953125 -1.109375 4.421875 -0.984375 4.953125 -0.984375 C 5.546875 -0.984375 6.039062 -1.117188 6.4375 -1.390625 C 6.832031 -1.660156 7.140625 -2.085938 7.359375 -2.671875 L 7.53125 -2.671875 L 8.359375 -2.171875 C 8.140625 -1.453125 7.738281 -0.878906 7.15625 -0.453125 C 6.582031 -0.0351562 5.847656 0.171875 4.953125 0.171875 Z M 4.953125 0.171875 "/></g></g></g></svg>