<svg xmlns="http://www.w3.org/2000/svg" xmlns:xlink="http://www.w3.org/1999/xlink" width="1500" zoomAndPan="magnify" viewBox="0 0 1125 374.999991" height="500" preserveAspectRatio="xMidYMid meet" version="1.2"><defs/><g id="8f96d7f76a"><path style=" stroke:none;fill-rule:nonzero;fill:#ffffff;fill-opacity:1;" d="M 100.863281 125.433594 L 136.003906 130.140625 C 140.304688 130.71875 143.980469 133.511719 145.6875 137.496094 L 200.746094 266.027344 C 204.511719 274.8125 197.265625 284.347656 187.792969 283.074219 L 152.652344 278.363281 C 148.355469 277.789062 144.679688 274.996094 142.972656 271.011719 L 87.910156 142.484375 C 84.148438 133.699219 91.390625 124.160156 100.863281 125.433594 Z M 178.378906 187.324219 L 233.445312 315.851562 C 235.152344 319.835938 238.828125 322.628906 243.128906 323.207031 L 278.269531 327.914062 C 287.738281 329.1875 294.984375 319.648438 291.222656 310.867188 L 236.160156 182.339844 C 234.449219 178.355469 230.773438 175.5625 226.476562 174.988281 L 191.335938 170.277344 C 181.863281 169.003906 174.617188 178.542969 178.378906 187.324219 Z M 198.4375 73.253906 L 253.5 201.78125 C 255.210938 205.765625 258.886719 208.558594 263.183594 209.136719 L 298.324219 213.847656 C 307.792969 215.117188 315.042969 205.578125 311.277344 196.796875 L 256.214844 68.269531 C 254.507812 64.285156 250.832031 61.492188 246.53125 60.917969 L 211.390625 56.207031 C 201.917969 54.933594 194.675781 64.46875 198.4375 73.253906 Z M 198.4375 73.253906 "/><g style="fill:#ffffff;fill-opacity:1;"><g transform="translate(382.8824, 251.294802)"><path style="stroke:none" d="M 118.375 37.078125 C 105.257812 37.078125 94.375 33.914062 85.71875 27.59375 C 77.0625 21.28125 71.238281 12.488281 68.25 1.21875 C 56.90625 -0.40625 47.003906 -4.253906 38.546875 -10.328125 C 30.097656 -16.410156 23.515625 -24.816406 18.796875 -35.546875 C 14.078125 -46.273438 11.71875 -59.25 11.71875 -74.46875 C 11.71875 -91.507812 14.671875 -105.75 20.578125 -117.1875 C 26.484375 -128.632812 34.648438 -137.140625 45.078125 -142.703125 C 55.503906 -148.273438 67.539062 -151.0625 81.1875 -151.0625 C 94.832031 -151.0625 106.847656 -148.296875 117.234375 -142.765625 C 127.628906 -137.234375 135.765625 -128.726562 141.640625 -117.25 C 147.515625 -105.769531 150.453125 -91.507812 150.453125 -74.46875 C 150.453125 -52.1875 145.679688 -35.085938 136.140625 -23.171875 C 126.597656 -11.253906 113.203125 -3.835938 95.953125 -0.921875 L 95.453125 1.125 C 97.554688 4.71875 100.695312 7.484375 104.875 9.421875 C 109.050781 11.359375 113.921875 12.328125 119.484375 12.328125 C 123.972656 12.328125 128.015625 11.75 131.609375 10.59375 L 133.65625 11 L 137.828125 34.03125 C 135.648438 34.84375 132.726562 35.550781 129.0625 36.15625 C 125.394531 36.769531 121.832031 37.078125 118.375 37.078125 Z M 81.1875 -23.421875 C 93.820312 -23.421875 103.46875 -27.476562 110.125 -35.59375 C 116.78125 -43.71875 120.109375 -56.675781 120.109375 -74.46875 C 120.109375 -92.257812 116.78125 -105.226562 110.125 -113.375 C 103.46875 -121.53125 93.820312 -125.609375 81.1875 -125.609375 C 68.488281 -125.609375 58.796875 -121.53125 52.109375 -113.375 C 45.421875 -105.226562 42.078125 -92.257812 42.078125 -74.46875 C 42.078125 -56.675781 45.421875 -43.71875 52.109375 -35.59375 C 58.796875 -27.476562 68.488281 -23.421875 81.1875 -23.421875 Z M 81.1875 -23.421875 "/></g></g><g style="fill:#ffffff;fill-opacity:1;"><g transform="translate(525.541474, 251.294802)"><path style="stroke:none" d="M 51.4375 2.140625 C 38.8125 2.140625 29.492188 -1.304688 23.484375 -8.203125 C 17.472656 -15.097656 14.46875 -24.992188 14.46875 -37.890625 L 14.46875 -112.359375 L 42.6875 -112.359375 L 42.6875 -41.453125 C 42.6875 -34.597656 44.160156 -29.59375 47.109375 -26.4375 C 50.066406 -23.28125 54.632812 -21.703125 60.8125 -21.703125 C 68.625 -21.703125 74.703125 -24.265625 79.046875 -29.390625 C 83.390625 -34.515625 85.5625 -42.578125 85.5625 -53.578125 L 85.5625 -112.359375 L 113.78125 -112.359375 L 113.78125 0 L 86.6875 0 L 86.6875 -16.5 L 84.546875 -17.015625 C 80.953125 -10.554688 76.554688 -5.75 71.359375 -2.59375 C 66.160156 0.5625 59.519531 2.140625 51.4375 2.140625 Z M 51.4375 2.140625 "/></g></g><g style="fill:#ffffff;fill-opacity:1;"><g transform="translate(635.90954, 251.294802)"><path style="stroke:none" d="M 30.25 -125.8125 C 25.15625 -125.8125 21.015625 -127.351562 17.828125 -130.4375 C 14.640625 -133.53125 13.046875 -137.519531 13.046875 -142.40625 C 13.046875 -147.226562 14.640625 -151.179688 17.828125 -154.265625 C 21.015625 -157.359375 25.15625 -158.90625 30.25 -158.90625 C 33.644531 -158.90625 36.664062 -158.191406 39.3125 -156.765625 C 41.96875 -155.347656 44.023438 -153.398438 45.484375 -150.921875 C 46.941406 -148.441406 47.671875 -145.601562 47.671875 -142.40625 C 47.671875 -139.21875 46.941406 -136.363281 45.484375 -133.84375 C 44.023438 -131.332031 41.96875 -129.363281 39.3125 -127.9375 C 36.664062 -126.519531 33.644531 -125.8125 30.25 -125.8125 Z M 16.203125 0 L 16.203125 -112.359375 L 44.421875 -112.359375 L 44.421875 0 Z M 16.203125 0 "/></g></g><g style="fill:#ffffff;fill-opacity:1;"><g transform="translate(676.806102, 251.294802)"><path style="stroke:none" d="M 94.328125 0 L 5.90625 0 L 5.90625 -23.328125 L 60.3125 -87.90625 L 59.6875 -90.046875 L 8.453125 -90.046875 L 8.453125 -112.46875 L 93.515625 -112.46875 L 93.515625 -89.140625 L 39.125 -24.546875 L 39.828125 -22.40625 L 94.328125 -22.40625 Z M 94.328125 0 "/></g></g><g style="fill:#ffffff;fill-opacity:1;"><g transform="translate(757.429771, 251.294802)"><path style="stroke:none" d="M 48.796875 -148.9375 L 48.796875 -24.65625 L 115.71875 -24.65625 L 115.71875 0 L 19.359375 0 L 19.359375 -148.9375 Z M 48.796875 -148.9375 "/></g></g><g style="fill:#ffffff;fill-opacity:1;"><g transform="translate(858.426315, 251.294802)"><path style="stroke:none" d="M 46.34375 0 L 19.359375 0 L 19.359375 -148.9375 L 57.859375 -148.9375 L 95.546875 -39.421875 L 97.6875 -39.421875 L 135.171875 -148.9375 L 172.765625 -148.9375 L 172.765625 0 L 144.859375 0 L 144.859375 -98.40625 L 142.3125 -98.8125 L 107.875 0 L 83.328125 0 L 48.890625 -98.8125 L 46.34375 -98.40625 Z M 46.34375 0 "/></g></g></g></svg>