<svg xmlns="http://www.w3.org/2000/svg" xmlns:xlink="http://www.w3.org/1999/xlink" width="500" zoomAndPan="magnify" viewBox="0 0 375 374.999991" height="500" preserveAspectRatio="xMidYMid meet" version="1.2"><defs><clipPath id="afaca64b99"><path d="M 37.5 0 L 337.5 0 L 337.5 375 L 37.5 375 Z M 37.5 0 "/></clipPath><clipPath id="a6e7947128"><path d="M 240 66 L 337.5 66 L 337.5 168 L 240 168 Z M 240 66 "/></clipPath><clipPath id="e7d7efcf36"><path d="M 225 0 L 337.5 0 L 337.5 113 L 225 113 Z M 225 0 "/></clipPath></defs><g id="94d097335c"><g clip-rule="nonzero" clip-path="url(#afaca64b99)"><path style=" stroke:none;fill-rule:nonzero;fill:#de3b38;fill-opacity:1;" d="M 75 0 L 225 0 L 337.5 112.5 L 337.5 337.5 C 337.5 338.726562 337.441406 339.953125 337.320312 341.175781 C 337.199219 342.398438 337.019531 343.609375 336.78125 344.816406 C 336.539062 346.019531 336.242188 347.210938 335.886719 348.386719 C 335.527344 349.5625 335.117188 350.714844 334.644531 351.851562 C 334.175781 352.984375 333.652344 354.09375 333.070312 355.175781 C 332.492188 356.261719 331.863281 357.3125 331.179688 358.332031 C 330.496094 359.355469 329.765625 360.339844 328.988281 361.289062 C 328.207031 362.238281 327.386719 363.148438 326.515625 364.015625 C 325.648438 364.886719 324.738281 365.707031 323.789062 366.488281 C 322.839844 367.265625 321.855469 367.996094 320.832031 368.679688 C 319.8125 369.363281 318.761719 369.992188 317.675781 370.570312 C 316.59375 371.152344 315.484375 371.675781 314.351562 372.144531 C 313.214844 372.617188 312.0625 373.027344 310.886719 373.386719 C 309.710938 373.742188 308.519531 374.039062 307.316406 374.28125 C 306.109375 374.519531 304.898438 374.699219 303.675781 374.820312 C 302.453125 374.941406 301.226562 375 300 375 L 75 375 C 73.773438 375 72.546875 374.941406 71.324219 374.820312 C 70.101562 374.699219 68.890625 374.519531 67.683594 374.28125 C 66.480469 374.039062 65.289062 373.742188 64.113281 373.386719 C 62.9375 373.027344 61.785156 372.617188 60.648438 372.144531 C 59.515625 371.675781 58.40625 371.152344 57.324219 370.570312 C 56.238281 369.992188 55.1875 369.363281 54.167969 368.679688 C 53.144531 367.996094 52.160156 367.265625 51.210938 366.488281 C 50.261719 365.707031 49.351562 364.886719 48.484375 364.015625 C 47.613281 363.148438 46.792969 362.238281 46.011719 361.289062 C 45.234375 360.339844 44.503906 359.355469 43.820312 358.332031 C 43.136719 357.3125 42.507812 356.261719 41.929688 355.175781 C 41.347656 354.09375 40.824219 352.984375 40.355469 351.851562 C 39.882812 350.714844 39.472656 349.5625 39.113281 348.386719 C 38.757812 347.210938 38.460938 346.019531 38.21875 344.816406 C 37.980469 343.609375 37.800781 342.398438 37.679688 341.175781 C 37.558594 339.953125 37.5 338.726562 37.5 337.5 L 37.5 37.5 C 37.5 36.273438 37.558594 35.046875 37.679688 33.824219 C 37.800781 32.601562 37.980469 31.390625 38.21875 30.183594 C 38.460938 28.980469 38.757812 27.789062 39.113281 26.613281 C 39.472656 25.4375 39.882812 24.285156 40.355469 23.148438 C 40.824219 22.015625 41.347656 20.90625 41.929688 19.824219 C 42.507812 18.738281 43.136719 17.6875 43.820312 16.667969 C 44.503906 15.644531 45.234375 14.660156 46.011719 13.710938 C 46.792969 12.761719 47.613281 11.851562 48.484375 10.984375 C 49.351562 10.113281 50.261719 9.292969 51.210938 8.511719 C 52.160156 7.734375 53.144531 7.003906 54.167969 6.320312 C 55.1875 5.636719 56.238281 5.007812 57.324219 4.429688 C 58.40625 3.847656 59.515625 3.324219 60.648438 2.855469 C 61.785156 2.382812 62.9375 1.972656 64.113281 1.613281 C 65.289062 1.257812 66.480469 0.960938 67.683594 0.71875 C 68.890625 0.480469 70.101562 0.300781 71.324219 0.179688 C 72.546875 0.0585938 73.773438 0 75 0 Z M 75 0 "/></g><g style="fill:#ffffff;fill-opacity:1;"><g transform="translate(75, 271.312453)"><path style="stroke:none" d="M 71.1875 -52.90625 C 71.1875 -47.914062 70.050781 -43.460938 67.78125 -39.546875 C 65.507812 -35.628906 62.257812 -32.597656 58.03125 -30.453125 C 53.800781 -28.316406 48.773438 -27.25 42.953125 -27.25 L 23.734375 -27.25 L 23.734375 0 L 7.53125 0 L 7.53125 -77.40625 L 42.296875 -77.40625 C 51.554688 -77.40625 58.6875 -75.269531 63.6875 -71 C 68.6875 -66.726562 71.1875 -60.695312 71.1875 -52.90625 Z M 54.875 -52.625 C 54.875 -60.75 50.078125 -64.8125 40.484375 -64.8125 L 23.734375 -64.8125 L 23.734375 -39.71875 L 40.921875 -39.71875 C 45.390625 -39.71875 48.832031 -40.820312 51.25 -43.03125 C 53.664062 -45.25 54.875 -48.445312 54.875 -52.625 Z M 54.875 -52.625 "/></g><g transform="translate(150.036616, 271.312453)"><path style="stroke:none" d="M 76.515625 -39.28125 C 76.515625 -31.289062 74.945312 -24.320312 71.8125 -18.375 C 68.6875 -12.425781 64.257812 -7.875 58.53125 -4.71875 C 52.800781 -1.570312 46.238281 0 38.84375 0 L 7.53125 0 L 7.53125 -77.40625 L 35.546875 -77.40625 C 48.578125 -77.40625 58.660156 -74.113281 65.796875 -67.53125 C 72.941406 -60.957031 76.515625 -51.539062 76.515625 -39.28125 Z M 60.203125 -39.28125 C 60.203125 -47.59375 58.039062 -53.9375 53.71875 -58.3125 C 49.394531 -62.6875 43.226562 -64.875 35.21875 -64.875 L 23.734375 -64.875 L 23.734375 -12.53125 L 37.46875 -12.53125 C 44.425781 -12.53125 49.953125 -14.925781 54.046875 -19.71875 C 58.148438 -24.519531 60.203125 -31.039062 60.203125 -39.28125 Z M 60.203125 -39.28125 "/></g><g transform="translate(231.280507, 271.312453)"><path style="stroke:none" d="M 23.734375 -64.875 L 23.734375 -40.921875 L 63.34375 -40.921875 L 63.34375 -28.40625 L 23.734375 -28.40625 L 23.734375 0 L 7.53125 0 L 7.53125 -77.40625 L 64.59375 -77.40625 L 64.59375 -64.875 Z M 23.734375 -64.875 "/></g></g><g clip-rule="nonzero" clip-path="url(#a6e7947128)"><path style=" stroke:none;fill-rule:nonzero;fill:#d13532;fill-opacity:1;" d="M 337.5 168 L 240.375 105.375 L 288.9375 66.1875 L 337.5 112.5 Z M 337.5 168 "/></g><g clip-rule="nonzero" clip-path="url(#e7d7efcf36)"><path style=" stroke:none;fill-rule:nonzero;fill:#d56c6f;fill-opacity:1;" d="M 225 0 L 225 75 C 225 76.226562 225.058594 77.453125 225.179688 78.675781 C 225.300781 79.898438 225.480469 81.109375 225.71875 82.316406 C 225.960938 83.519531 226.257812 84.710938 226.613281 85.886719 C 226.972656 87.0625 227.382812 88.214844 227.855469 89.351562 C 228.324219 90.484375 228.847656 91.59375 229.429688 92.675781 C 230.007812 93.761719 230.636719 94.8125 231.320312 95.832031 C 232.003906 96.855469 232.734375 97.839844 233.511719 98.789062 C 234.292969 99.738281 235.113281 100.648438 235.984375 101.515625 C 236.851562 102.386719 237.761719 103.207031 238.710938 103.988281 C 239.660156 104.765625 240.644531 105.496094 241.667969 106.179688 C 242.6875 106.863281 243.738281 107.492188 244.824219 108.070312 C 245.90625 108.652344 247.015625 109.175781 248.148438 109.644531 C 249.285156 110.117188 250.4375 110.527344 251.613281 110.886719 C 252.789062 111.242188 253.980469 111.539062 255.183594 111.78125 C 256.386719 112.019531 257.601562 112.199219 258.824219 112.320312 C 260.046875 112.441406 261.273438 112.5 262.5 112.5 L 337.5 112.5 Z M 225 0 "/></g><g style="fill:#de3b38;fill-opacity:1;"><g transform="translate(147.252549, 121.912874)"><path style="stroke:none" d="M 1.5 3.5 L 1.5 -8.625 L 2.78125 -8.625 L 2.78125 -7.328125 L 2.9375 -7.296875 C 3.582031 -8.285156 4.523438 -8.78125 5.765625 -8.78125 C 6.484375 -8.78125 7.109375 -8.613281 7.640625 -8.28125 C 8.179688 -7.957031 8.597656 -7.460938 8.890625 -6.796875 C 9.191406 -6.128906 9.34375 -5.300781 9.34375 -4.3125 C 9.34375 -3.320312 9.1875 -2.492188 8.875 -1.828125 C 8.5625 -1.160156 8.128906 -0.660156 7.578125 -0.328125 C 7.023438 0.00390625 6.390625 0.171875 5.671875 0.171875 C 5.085938 0.171875 4.566406 0.0664062 4.109375 -0.140625 C 3.660156 -0.347656 3.269531 -0.679688 2.9375 -1.140625 L 2.78125 -1.109375 L 2.78125 3.5 Z M 5.390625 -0.984375 C 7.128906 -0.984375 8 -2.09375 8 -4.3125 C 8 -6.53125 7.128906 -7.640625 5.390625 -7.640625 C 4.878906 -7.640625 4.425781 -7.519531 4.03125 -7.28125 C 3.644531 -7.050781 3.335938 -6.6875 3.109375 -6.1875 C 2.890625 -5.695312 2.78125 -5.070312 2.78125 -4.3125 C 2.78125 -3.550781 2.890625 -2.921875 3.109375 -2.421875 C 3.335938 -1.929688 3.644531 -1.566406 4.03125 -1.328125 C 4.425781 -1.097656 4.878906 -0.984375 5.390625 -0.984375 Z M 5.390625 -0.984375 "/></g></g><g style="fill:#de3b38;fill-opacity:1;"><g transform="translate(157.531289, 121.912874)"><path style="stroke:none" d="M 4.46875 0.171875 C 3.78125 0.171875 3.171875 0.00390625 2.640625 -0.328125 C 2.109375 -0.660156 1.691406 -1.160156 1.390625 -1.828125 C 1.097656 -2.492188 0.953125 -3.320312 0.953125 -4.3125 C 0.953125 -5.289062 1.109375 -6.113281 1.421875 -6.78125 C 1.734375 -7.457031 2.160156 -7.957031 2.703125 -8.28125 C 3.253906 -8.613281 3.894531 -8.78125 4.625 -8.78125 C 5.195312 -8.78125 5.710938 -8.671875 6.171875 -8.453125 C 6.628906 -8.242188 7.019531 -7.890625 7.34375 -7.390625 L 7.515625 -7.421875 L 7.515625 -12.078125 L 8.78125 -12.078125 L 8.78125 0 L 7.515625 0 L 7.515625 -1.265625 L 7.34375 -1.296875 C 7.0625 -0.867188 6.679688 -0.515625 6.203125 -0.234375 C 5.722656 0.0351562 5.144531 0.171875 4.46875 0.171875 Z M 4.875 -0.984375 C 5.675781 -0.984375 6.316406 -1.253906 6.796875 -1.796875 C 7.273438 -2.347656 7.515625 -3.1875 7.515625 -4.3125 C 7.515625 -5.4375 7.273438 -6.269531 6.796875 -6.8125 C 6.316406 -7.363281 5.675781 -7.640625 4.875 -7.640625 C 4.039062 -7.640625 3.398438 -7.367188 2.953125 -6.828125 C 2.503906 -6.296875 2.28125 -5.457031 2.28125 -4.3125 C 2.28125 -2.09375 3.144531 -0.984375 4.875 -0.984375 Z M 4.875 -0.984375 "/></g></g><g style="fill:#de3b38;fill-opacity:1;"><g transform="translate(167.817844, 121.912874)"><path style="stroke:none" d="M 1.921875 0 L 1.921875 -7.578125 L 0.421875 -7.578125 L 0.421875 -8.625 L 1.921875 -8.625 C 1.828125 -9 1.78125 -9.359375 1.78125 -9.703125 C 1.78125 -10.253906 1.898438 -10.722656 2.140625 -11.109375 C 2.378906 -11.492188 2.707031 -11.78125 3.125 -11.96875 C 3.550781 -12.15625 4.039062 -12.25 4.59375 -12.25 C 5.445312 -12.25 6.101562 -12.0625 6.5625 -11.6875 L 6.078125 -10.796875 L 5.90625 -10.765625 C 5.570312 -11.035156 5.132812 -11.171875 4.59375 -11.171875 C 4.082031 -11.171875 3.695312 -11.039062 3.4375 -10.78125 C 3.1875 -10.519531 3.0625 -10.148438 3.0625 -9.671875 C 3.0625 -9.367188 3.109375 -9.019531 3.203125 -8.625 L 5.9375 -8.625 L 5.9375 -7.578125 L 3.203125 -7.578125 L 3.203125 0 Z M 1.921875 0 "/></g></g></g></svg>