<svg xmlns="http://www.w3.org/2000/svg" xmlns:xlink="http://www.w3.org/1999/xlink" width="500" zoomAndPan="magnify" viewBox="0 0 375 374.999991" height="500" preserveAspectRatio="xMidYMid meet" version="1.2"><defs><clipPath id="b08a74fd81"><path d="M 187.5 0 C 83.945312 0 0 83.945312 0 187.5 C 0 291.054688 83.945312 375 187.5 375 C 291.054688 375 375 291.054688 375 187.5 C 375 83.945312 291.054688 0 187.5 0 Z M 187.5 0 "/></clipPath><clipPath id="941b4dde01"><path d="M 106.234375 71.199219 L 268.984375 71.199219 L 268.984375 303.699219 L 106.234375 303.699219 Z M 106.234375 71.199219 "/></clipPath></defs><g id="ddc4828521"><g clip-rule="nonzero" clip-path="url(#b08a74fd81)"><rect x="0" width="375" y="0" height="374.999991" style="fill:#7082ff;fill-opacity:1;stroke:none;"/></g><g clip-rule="nonzero" clip-path="url(#941b4dde01)"><path style=" stroke:none;fill-rule:nonzero;fill:#ffffff;fill-opacity:1;" d="M 254.347656 282.550781 C 254.34375 284.355469 253.621094 285.964844 252.40625 287.191406 C 251.179688 288.40625 249.5625 289.132812 247.75 289.132812 L 127.1875 289.132812 C 125.367188 289.128906 123.757812 288.40625 122.535156 287.195312 C 121.320312 285.96875 120.597656 284.359375 120.59375 282.550781 L 120.59375 186.042969 C 120.597656 184.234375 121.316406 182.625 122.535156 181.402344 C 123.757812 180.183594 125.367188 179.460938 127.1875 179.457031 L 247.75 179.457031 C 249.558594 179.457031 251.175781 180.183594 252.40625 181.402344 C 253.621094 182.632812 254.34375 184.242188 254.347656 186.042969 Z M 151.394531 98.449219 C 159.261719 90.601562 170.039062 85.769531 182.023438 85.765625 L 192.921875 85.765625 C 204.90625 85.769531 215.6875 90.601562 223.550781 98.449219 C 231.394531 106.3125 236.230469 117.09375 236.234375 129.078125 L 236.234375 165.097656 L 138.710938 165.097656 L 138.710938 129.078125 C 138.714844 117.09375 143.546875 106.3125 151.394531 98.449219 Z M 250.59375 165.320312 L 250.59375 129.078125 C 250.589844 97.222656 224.777344 71.410156 192.921875 71.40625 L 182.023438 71.40625 C 150.167969 71.410156 124.355469 97.222656 124.351562 129.078125 L 124.351562 165.316406 C 114.125 166.71875 106.257812 175.445312 106.234375 186.042969 L 106.234375 282.550781 C 106.257812 294.113281 115.609375 303.472656 127.1875 303.492188 L 247.75 303.492188 C 259.316406 303.464844 268.679688 294.125 268.707031 282.550781 L 268.707031 186.042969 C 268.679688 175.441406 260.808594 166.730469 250.59375 165.320312 "/></g><path style=" stroke:none;fill-rule:nonzero;fill:#ffffff;fill-opacity:1;" d="M 201.832031 221.132812 C 201.832031 213.199219 195.402344 206.773438 187.472656 206.773438 C 179.542969 206.773438 173.113281 213.199219 173.113281 221.132812 C 173.113281 226.976562 176.621094 231.988281 181.632812 234.230469 L 171.390625 261.816406 L 203.550781 261.816406 L 193.308594 234.230469 C 198.320312 231.988281 201.832031 226.976562 201.832031 221.132812 "/></g></svg>