<svg xmlns="http://www.w3.org/2000/svg" xmlns:xlink="http://www.w3.org/1999/xlink" width="500" zoomAndPan="magnify" viewBox="0 0 375 374.999991" height="500" preserveAspectRatio="xMidYMid meet" version="1.2"><defs/><g id="fb086f1ca2"><path style=" stroke:none;fill-rule:evenodd;fill:#5c9cee;fill-opacity:1;" d="M 344.246094 335.457031 C 344.246094 346.441406 339.851562 356.328125 332.601562 363.355469 C 325.570312 370.605469 315.683594 375 304.921875 375 L 70.078125 375 C 59.316406 375 49.429688 370.605469 42.179688 363.355469 C 35.148438 356.328125 30.753906 346.441406 30.753906 335.457031 L 30.753906 39.324219 C 30.753906 28.558594 35.148438 18.671875 42.179688 11.644531 C 49.429688 4.394531 59.316406 0 70.078125 0 L 270.429688 0 C 273.507812 0 276.140625 1.316406 278.121094 3.296875 L 340.949219 66.125 C 343.144531 68.320312 344.246094 70.957031 344.246094 73.8125 Z M 344.246094 335.457031 "/><path style=" stroke:none;fill-rule:evenodd;fill:#0068c0;fill-opacity:1;" d="M 88.3125 91.167969 C 88.3125 97.320312 83.261719 102.152344 77.328125 102.152344 C 71.175781 102.152344 66.34375 97.320312 66.34375 91.167969 L 66.34375 76.667969 C 66.34375 70.519531 71.175781 65.683594 77.328125 65.683594 L 157.511719 65.683594 C 163.664062 65.683594 168.496094 70.519531 168.496094 76.667969 L 168.496094 91.167969 C 168.496094 97.320312 163.664062 102.152344 157.511719 102.152344 C 151.582031 102.152344 146.527344 97.320312 146.527344 91.167969 L 146.527344 87.652344 L 88.3125 87.652344 Z M 88.3125 91.167969 "/><path style=" stroke:none;fill-rule:evenodd;fill:#0068c0;fill-opacity:1;" d="M 106.546875 76.667969 C 106.546875 70.519531 111.378906 65.683594 117.53125 65.683594 C 123.460938 65.683594 128.515625 70.519531 128.515625 76.667969 L 128.515625 139.9375 C 128.515625 146.089844 123.460938 150.921875 117.53125 150.921875 C 111.378906 150.921875 106.546875 146.089844 106.546875 139.9375 Z M 106.546875 76.667969 "/><path style=" stroke:none;fill-rule:evenodd;fill:#0068c0;fill-opacity:1;" d="M 178.164062 117.089844 C 172.011719 117.089844 167.179688 112.039062 167.179688 106.105469 C 167.179688 99.957031 172.011719 95.121094 178.164062 95.121094 L 193.980469 95.121094 C 199.914062 95.121094 204.964844 99.957031 204.964844 106.105469 C 204.964844 112.039062 199.914062 117.089844 193.980469 117.089844 Z M 178.164062 117.089844 "/><path style=" stroke:none;fill-rule:evenodd;fill:#0068c0;fill-opacity:1;" d="M 178.164062 150.921875 C 172.011719 150.921875 167.179688 146.089844 167.179688 139.9375 C 167.179688 134.007812 172.011719 128.953125 178.164062 128.953125 L 193.980469 128.953125 C 199.914062 128.953125 204.964844 134.007812 204.964844 139.9375 C 204.964844 146.089844 199.914062 150.921875 193.980469 150.921875 Z M 178.164062 150.921875 "/><path style=" stroke:none;fill-rule:evenodd;fill:#0068c0;fill-opacity:1;" d="M 175.085938 106.105469 C 175.085938 99.957031 179.921875 95.121094 186.070312 95.121094 C 192.003906 95.121094 197.054688 99.957031 197.054688 106.105469 L 197.054688 139.9375 C 197.054688 146.089844 192.003906 150.921875 186.070312 150.921875 C 179.921875 150.921875 175.085938 146.089844 175.085938 139.9375 Z M 175.085938 106.105469 "/><path style=" stroke:none;fill-rule:evenodd;fill:#b5d5f5;fill-opacity:1;" d="M 204.304688 287.347656 C 210.238281 287.347656 215.289062 292.179688 215.289062 298.332031 C 215.289062 304.480469 210.238281 309.316406 204.304688 309.316406 L 101.273438 309.316406 C 95.34375 309.316406 90.289062 304.480469 90.289062 298.332031 C 90.289062 292.179688 95.34375 287.347656 101.273438 287.347656 Z M 204.304688 287.347656 "/><path style=" stroke:none;fill-rule:evenodd;fill:#b5d5f5;fill-opacity:1;" d="M 273.507812 287.347656 C 279.65625 287.347656 284.492188 292.179688 284.492188 298.332031 C 284.492188 304.480469 279.65625 309.316406 273.507812 309.316406 L 250 309.316406 C 243.847656 309.316406 239.015625 304.480469 239.015625 298.332031 C 239.015625 292.179688 243.847656 287.347656 250 287.347656 Z M 273.507812 287.347656 "/><path style=" stroke:none;fill-rule:evenodd;fill:#b5d5f5;fill-opacity:1;" d="M 204.304688 234.183594 C 210.238281 234.183594 215.289062 239.234375 215.289062 245.167969 C 215.289062 251.316406 210.238281 256.152344 204.304688 256.152344 L 101.273438 256.152344 C 95.34375 256.152344 90.289062 251.316406 90.289062 245.167969 C 90.289062 239.234375 95.34375 234.183594 101.273438 234.183594 Z M 204.304688 234.183594 "/><path style=" stroke:none;fill-rule:evenodd;fill:#b5d5f5;fill-opacity:1;" d="M 273.507812 234.183594 C 279.65625 234.183594 284.492188 239.234375 284.492188 245.167969 C 284.492188 251.316406 279.65625 256.152344 273.507812 256.152344 L 250 256.152344 C 243.847656 256.152344 239.015625 251.316406 239.015625 245.167969 C 239.015625 239.234375 243.847656 234.183594 250 234.183594 Z M 273.507812 234.183594 "/><path style=" stroke:none;fill-rule:evenodd;fill:#b5d5f5;fill-opacity:1;" d="M 204.304688 181.019531 C 210.238281 181.019531 215.289062 186.070312 215.289062 192.003906 C 215.289062 198.15625 210.238281 202.988281 204.304688 202.988281 L 101.273438 202.988281 C 95.34375 202.988281 90.289062 198.15625 90.289062 192.003906 C 90.289062 186.070312 95.34375 181.019531 101.273438 181.019531 Z M 204.304688 181.019531 "/><path style=" stroke:none;fill-rule:evenodd;fill:#b5d5f5;fill-opacity:1;" d="M 273.507812 181.019531 C 279.65625 181.019531 284.492188 186.070312 284.492188 192.003906 C 284.492188 198.15625 279.65625 202.988281 273.507812 202.988281 L 250 202.988281 C 243.847656 202.988281 239.015625 198.15625 239.015625 192.003906 C 239.015625 186.070312 243.847656 181.019531 250 181.019531 Z M 273.507812 181.019531 "/><path style=" stroke:none;fill-rule:evenodd;fill:#b5d5f5;fill-opacity:1;" d="M 273.507812 128.074219 C 279.65625 128.074219 284.492188 132.910156 284.492188 139.058594 C 284.492188 144.992188 279.65625 150.042969 273.507812 150.042969 L 250 150.042969 C 243.847656 150.042969 239.015625 144.992188 239.015625 139.058594 C 239.015625 132.910156 243.847656 128.074219 250 128.074219 Z M 273.507812 128.074219 "/><g style="fill:#5c9cee;fill-opacity:1;"><g transform="translate(175.471706, 343.124977)"><path style="stroke:none" d="M 5.828125 -1.375 L 6.234375 -0.453125 C 6.035156 -0.253906 5.769531 -0.101562 5.4375 0 C 5.101562 0.113281 4.742188 0.171875 4.359375 0.171875 C 2.710938 0.171875 1.890625 -0.664062 1.890625 -2.34375 L 1.890625 -7.578125 L 0.390625 -7.578125 L 0.390625 -8.625 L 1.890625 -8.625 L 1.890625 -10.453125 L 3.171875 -10.65625 L 3.171875 -8.625 L 5.9375 -8.625 L 5.9375 -7.578125 L 3.171875 -7.578125 L 3.171875 -2.46875 C 3.171875 -1.476562 3.597656 -0.984375 4.453125 -0.984375 C 4.921875 -0.984375 5.328125 -1.113281 5.671875 -1.375 Z M 5.828125 -1.375 "/></g></g><g style="fill:#5c9cee;fill-opacity:1;"><g transform="translate(181.93106, 343.124977)"><path style="stroke:none" d="M 8.21875 -4.015625 L 2.296875 -4.015625 C 2.328125 -2.972656 2.578125 -2.207031 3.046875 -1.71875 C 3.515625 -1.226562 4.15625 -0.984375 4.96875 -0.984375 C 5.582031 -0.984375 6.078125 -1.09375 6.453125 -1.3125 C 6.828125 -1.53125 7.117188 -1.875 7.328125 -2.34375 L 7.5 -2.34375 L 8.328125 -1.84375 C 8.078125 -1.21875 7.675781 -0.722656 7.125 -0.359375 C 6.570312 -0.00390625 5.851562 0.171875 4.96875 0.171875 C 4.132812 0.171875 3.414062 0.00390625 2.8125 -0.328125 C 2.21875 -0.660156 1.757812 -1.160156 1.4375 -1.828125 C 1.113281 -2.492188 0.953125 -3.320312 0.953125 -4.3125 C 0.953125 -5.289062 1.117188 -6.113281 1.453125 -6.78125 C 1.796875 -7.457031 2.265625 -7.957031 2.859375 -8.28125 C 3.453125 -8.613281 4.128906 -8.78125 4.890625 -8.78125 C 5.992188 -8.78125 6.851562 -8.46875 7.46875 -7.84375 C 8.09375 -7.226562 8.40625 -6.304688 8.40625 -5.078125 C 8.40625 -4.597656 8.394531 -4.273438 8.375 -4.109375 Z M 7.15625 -5.078125 C 7.132812 -5.992188 6.929688 -6.660156 6.546875 -7.078125 C 6.160156 -7.492188 5.609375 -7.703125 4.890625 -7.703125 C 4.128906 -7.703125 3.535156 -7.492188 3.109375 -7.078125 C 2.679688 -6.660156 2.421875 -5.992188 2.328125 -5.078125 Z M 7.15625 -5.078125 "/></g></g><g style="fill:#5c9cee;fill-opacity:1;"><g transform="translate(190.983519, 343.124977)"><path style="stroke:none" d="M 1.796875 0 L 0.390625 0 L 3.0625 -4.46875 L 0.53125 -8.625 L 1.96875 -8.625 L 3.953125 -5.3125 L 4.140625 -5.3125 L 6.140625 -8.625 L 7.515625 -8.625 L 5.046875 -4.46875 L 7.640625 0 L 6.203125 0 L 4.078125 -3.640625 L 3.90625 -3.640625 Z M 1.796875 0 "/></g></g><g style="fill:#5c9cee;fill-opacity:1;"><g transform="translate(199.012808, 343.124977)"><path style="stroke:none" d="M 5.828125 -1.375 L 6.234375 -0.453125 C 6.035156 -0.253906 5.769531 -0.101562 5.4375 0 C 5.101562 0.113281 4.742188 0.171875 4.359375 0.171875 C 2.710938 0.171875 1.890625 -0.664062 1.890625 -2.34375 L 1.890625 -7.578125 L 0.390625 -7.578125 L 0.390625 -8.625 L 1.890625 -8.625 L 1.890625 -10.453125 L 3.171875 -10.65625 L 3.171875 -8.625 L 5.9375 -8.625 L 5.9375 -7.578125 L 3.171875 -7.578125 L 3.171875 -2.46875 C 3.171875 -1.476562 3.597656 -0.984375 4.453125 -0.984375 C 4.921875 -0.984375 5.328125 -1.113281 5.671875 -1.375 Z M 5.828125 -1.375 "/></g></g></g></svg>