<svg xmlns="http://www.w3.org/2000/svg" xmlns:xlink="http://www.w3.org/1999/xlink" width="500" zoomAndPan="magnify" viewBox="0 0 375 374.999991" height="500" preserveAspectRatio="xMidYMid meet" version="1.2"><defs><clipPath id="3439d1d93d"><path d="M 0 25.078125 L 375 25.078125 L 375 349.828125 L 0 349.828125 Z M 0 25.078125 "/></clipPath></defs><g id="bf7a33014f"><g clip-rule="nonzero" clip-path="url(#3439d1d93d)"><path style=" stroke:none;fill-rule:nonzero;fill:#000000;fill-opacity:1;" d="M 187.5 25.078125 C 120.050781 25.078125 62.167969 66.355469 37.570312 125 L 65.292969 125 C 79.542969 97.09375 103.066406 74.746094 131.765625 61.964844 C 120.832031 78.648438 112.046875 100.019531 106.582031 125 L 132.449219 125 C 143.769531 79.136719 166.417969 50.058594 187.5 50.058594 C 208.582031 50.058594 231.230469 79.136719 242.550781 125 L 268.417969 125 C 262.953125 100.019531 254.167969 78.648438 243.234375 61.964844 C 271.933594 74.746094 295.457031 97.09375 309.707031 125 L 337.429688 125 C 312.832031 66.355469 254.949219 25.078125 187.5 25.078125 Z M 0.0898438 149.980469 L 24.492188 249.90625 L 48.113281 249.90625 L 62.558594 186.183594 L 77.007812 249.90625 L 100.628906 249.90625 L 125.03125 149.980469 L 100.042969 149.980469 L 88.132812 210.09375 L 75.054688 149.980469 L 50.066406 149.980469 L 36.988281 210.09375 L 25.078125 149.980469 Z M 125.03125 149.980469 L 149.433594 249.90625 L 173.054688 249.90625 L 187.5 186.183594 L 201.945312 249.90625 L 225.566406 249.90625 L 249.96875 149.980469 L 224.980469 149.980469 L 213.074219 210.09375 L 199.992188 149.980469 L 175.007812 149.980469 L 161.925781 210.09375 L 150.019531 149.980469 Z M 249.96875 149.980469 L 274.46875 249.90625 L 297.992188 249.90625 L 312.441406 186.183594 L 326.886719 249.90625 L 350.410156 249.90625 L 374.910156 149.980469 L 349.921875 149.980469 L 338.109375 210.09375 L 324.933594 149.980469 L 299.945312 149.980469 L 286.769531 210.09375 L 274.957031 149.980469 Z M 50.847656 274.886719 C 79.738281 319.871094 130.105469 349.828125 187.5 349.828125 C 244.894531 349.828125 295.261719 319.871094 324.152344 274.886719 L 293.40625 274.886719 C 279.9375 291.085938 262.757812 304.0625 243.332031 312.746094 C 250.359375 302.011719 256.605469 289.328125 261.488281 274.886719 L 234.546875 274.886719 C 222.25 305.917969 204.484375 324.847656 187.5 324.847656 C 170.515625 324.847656 152.75 305.917969 140.453125 274.886719 L 113.511719 274.886719 C 118.394531 289.328125 124.640625 302.011719 131.667969 312.746094 C 112.242188 304.0625 95.0625 291.085938 81.59375 274.886719 Z M 50.847656 274.886719 "/></g><g style="fill:#000000;fill-opacity:1;"><g transform="translate(174.545921, 343.124977)"><path style="stroke:none" d="M 4.28125 0 L 2.671875 0 L 0.5625 -8.625 L 1.8125 -8.625 L 3.453125 -1.484375 L 3.609375 -1.484375 L 5.625 -8.625 L 6.953125 -8.625 L 9.03125 -1.484375 L 9.1875 -1.484375 L 10.796875 -8.625 L 12.015625 -8.625 L 9.921875 0 L 8.3125 0 L 6.34375 -6.6875 L 6.171875 -6.6875 Z M 4.28125 0 "/></g></g><g style="fill:#000000;fill-opacity:1;"><g transform="translate(187.042868, 343.124977)"><path style="stroke:none" d="M 8.21875 -4.015625 L 2.296875 -4.015625 C 2.328125 -2.972656 2.578125 -2.207031 3.046875 -1.71875 C 3.515625 -1.226562 4.15625 -0.984375 4.96875 -0.984375 C 5.582031 -0.984375 6.078125 -1.09375 6.453125 -1.3125 C 6.828125 -1.53125 7.117188 -1.875 7.328125 -2.34375 L 7.5 -2.34375 L 8.328125 -1.84375 C 8.078125 -1.21875 7.675781 -0.722656 7.125 -0.359375 C 6.570312 -0.00390625 5.851562 0.171875 4.96875 0.171875 C 4.132812 0.171875 3.414062 0.00390625 2.8125 -0.328125 C 2.21875 -0.660156 1.757812 -1.160156 1.4375 -1.828125 C 1.113281 -2.492188 0.953125 -3.320312 0.953125 -4.3125 C 0.953125 -5.289062 1.117188 -6.113281 1.453125 -6.78125 C 1.796875 -7.457031 2.265625 -7.957031 2.859375 -8.28125 C 3.453125 -8.613281 4.128906 -8.78125 4.890625 -8.78125 C 5.992188 -8.78125 6.851562 -8.46875 7.46875 -7.84375 C 8.09375 -7.226562 8.40625 -6.304688 8.40625 -5.078125 C 8.40625 -4.597656 8.394531 -4.273438 8.375 -4.109375 Z M 7.15625 -5.078125 C 7.132812 -5.992188 6.929688 -6.660156 6.546875 -7.078125 C 6.160156 -7.492188 5.609375 -7.703125 4.890625 -7.703125 C 4.128906 -7.703125 3.535156 -7.492188 3.109375 -7.078125 C 2.679688 -6.660156 2.421875 -5.992188 2.328125 -5.078125 Z M 7.15625 -5.078125 "/></g></g><g style="fill:#000000;fill-opacity:1;"><g transform="translate(196.228125, 343.124977)"><path style="stroke:none" d="M 5.734375 0.171875 C 5.085938 0.171875 4.53125 0.046875 4.0625 -0.203125 C 3.59375 -0.453125 3.21875 -0.78125 2.9375 -1.1875 L 2.78125 -1.15625 L 2.78125 0 L 1.5 0 L 1.5 -12.078125 L 2.78125 -12.078125 L 2.78125 -7.328125 L 2.9375 -7.296875 C 3.59375 -8.285156 4.546875 -8.78125 5.796875 -8.78125 C 6.503906 -8.78125 7.125 -8.613281 7.65625 -8.28125 C 8.1875 -7.957031 8.597656 -7.460938 8.890625 -6.796875 C 9.191406 -6.128906 9.34375 -5.300781 9.34375 -4.3125 C 9.34375 -3.332031 9.1875 -2.503906 8.875 -1.828125 C 8.5625 -1.160156 8.132812 -0.660156 7.59375 -0.328125 C 7.050781 0.00390625 6.429688 0.171875 5.734375 0.171875 Z M 5.421875 -0.984375 C 7.140625 -0.984375 8 -2.09375 8 -4.3125 C 8 -5.457031 7.773438 -6.296875 7.328125 -6.828125 C 6.878906 -7.367188 6.242188 -7.640625 5.421875 -7.640625 C 4.617188 -7.640625 3.976562 -7.363281 3.5 -6.8125 C 3.019531 -6.269531 2.78125 -5.4375 2.78125 -4.3125 C 2.78125 -3.1875 3.019531 -2.347656 3.5 -1.796875 C 3.976562 -1.253906 4.617188 -0.984375 5.421875 -0.984375 Z M 5.421875 -0.984375 "/></g></g></g></svg>